<svg xmlns="http://www.w3.org/2000/svg" viewBox="-579 177 40.6 48" enable-background="new -579 177 40.6 48"><style type="text/css">.st0{fill:#FFFFFF;}</style><path class="st0" d="M-539.8 193c-2-3-5.3-4.8-8.6-4.8-4.3 0-6.1 2-9.2 2-3.1 0-5.5-2-9.2-2s-7.6 2.2-10 6c-3.5 5.4-2.9 15.6 2.7 24.2 2 3 4.7 6.6 8.2 6.6 3.1 0 3.9-2 8.2-2 4.1 0 4.9 2 8 2 3.5 0 6.3-3.8 8.4-7 1.4-2.2 2-3.4 3.1-5.8-8.4-3.2-9.6-14.8-1.6-19.2zm-19.3-4.4c2.7 0 5.5-1.6 7.2-3.8 1.6-2 2.9-5 2.5-7.8-2.7.2-5.5 1.8-7.4 4-1.6 2-2.9 4.8-2.5 7.6h.2z"/></svg>