<svg xmlns="http://www.w3.org/2000/svg" xmlns:xlink="http://www.w3.org/1999/xlink" viewBox="0 0 540 451" enable-background="new 0 0 540 451"><style type="text/css">.st0{fill:none;} .st1{display:none;fill:none;}</style><image width="540" height="451" id="Layer_1_2_" xlink:href="D33FED759441E622.png" overflow="visible"/><g id="Layer_1"><path class="st0" d="M270 848.3l1206-721.6M-102 713l1206-721.6M627.5 97.1v113.2M109.3 362.2v113.3M88.7 374.6v113.2M130.7 374v113.3M6.2 329.1v113.2M5.6 305v113.2"/><path class="st0" d="M250.2 207.8v70.3l80.2-48v-70.3zM250.2 254l19.8-11.8v-22.5l-19.8 11.9zM-173.2 328.7l308.3 170.3"/><path class="st0" d="M126.9 233.4l82.5 45.5 20.7-12.4-82.5-45.5zM166.5 161.6l83.7 46.2 80.2-48-83.6-46.2zM209.4 278.9v23.6l20.7-12.4v-23.6zM209.4 302.5v-23.6l-82.5-45.5v23.5zM166.5 161.6v69.8l63.6 35.1v23.6l20.1-12v-70.3zM166.5 207.8l83.7 46.2v-22.4l-83.7-46.3zM188 219.7l41.5 22.9v-22.5l-41.5-22.9zM166.5 231.4v-22.7l-160.9 96.3 21.3 11.7-20.7 12.4 82.5 45.5 20.6-12.4 21.4 11.8 240.2-143.6 21.3 11.7 40.8-24.4-42.7-23.6 19.8-11.8-20.4-11.3-19.9 11.9-39.4-21.8v69l-121 72.4-82.5-45.6v-23.5l20.7-12.4zM166.5 254.7v-22.7l-160.9 96.2 21.3 11.8-20.7 12.3 82.5 45.6 20.6-12.4 21.4 11.8 240.2-143.7 21.3 11.8 40.8-24.4-42.7-23.6 19.8-11.9-20.4-11.2-19.9 11.8-39.4-21.8v69.1l-121 72.4-82.5-45.6v-23.5l20.7-12.5zM166.5 278.1v-22.7l-160.9 96.3 21.3 11.7-20.7 12.4 82.5 45.5 20.6-12.3 21.4 11.8 240.2-143.7 21.3 11.8 40.8-24.4-42.7-23.6 19.8-11.9-20.4-11.3-19.9 11.9-39.4-21.8v69l-121 72.4-82.5-45.5v-23.6l20.7-12.4zM6.2 329.1v70.3l82.5 45.5v-70.3zM109.3 362.2v70.4l-20.6 12.3v-70.3zM130.7 374v70.4l-21.4-11.8v-70.4zM130.7 374v70.4l261.3-156.4-21.1-11.3v-46.3zM370.9 230.4l20.8 11.5-19.8 11.8v24l-1-.6zM88.7 421.3v-23.4l-82.5-45.6v23.5zM109.3 385.5l-20.6 12.4v23.4l20.6-12.3zM130.7 397.3v23.5l-21.4-11.8v-23.5z"/><path class="st1" d="M370.9 253.6l-240.2 143.7v23.5l240.2-143.7z"/></g></svg>